<svg width="1920" height="1920" viewBox="0 0 1920 1920" fill="none" xmlns="http://www.w3.org/2000/svg">
<g clip-path="url(#clip0_500_798)">
<rect width="1920" height="1920" fill="#6DEEAE"/>
<g opacity="0.22">
<path d="M1494.82 180.721C1437.55 215.501 1329.37 260.539 1225.3 255.555C1233.16 220.151 1238.68 190.676 1234.38 194.954C1229.74 199.567 1212.39 226.298 1196.34 252.807C1150.73 246.226 1106.94 228.698 1069.77 194.963C1043.08 170.745 1019.36 146.36 998.384 122.51C1015.87 106.765 1033.73 89.6545 1045.57 77.9526C1028.55 84.8365 1004.75 94.6292 982.61 104.063C912.855 20.149 877.481 -54.6428 867.254 -88.4734C923.767 -105.985 1040.91 -124.53 1143 -93.1478C1137.61 -58.5359 1132.48 -20.1224 1129.18 6.6697L1171.67 -82.7887C1190.94 -74.7059 1209.35 -64.5297 1226.35 -51.8794C1281.72 -10.6717 1323.19 29.771 1357.86 65.3976L1283.34 128.926C1306.98 115.691 1339.83 97.295 1371.53 79.543C1417.62 127.45 1452.25 164.868 1494.82 180.721Z" fill="black" fill-opacity="0.05"/>
<path d="M1494.82 180.721L1495.86 182.43L1499.39 180.287L1495.52 178.846L1494.82 180.721ZM1225.3 255.555L1223.35 255.121L1222.83 257.439L1225.2 257.552L1225.3 255.555ZM1234.38 194.954L1232.97 193.536L1232.97 193.536L1234.38 194.954ZM1196.34 252.807L1196.05 254.786L1197.36 254.975L1198.05 253.843L1196.34 252.807ZM1069.77 194.963L1068.42 196.444L1068.42 196.444L1069.77 194.963ZM998.384 122.51L997.046 121.024L995.577 122.347L996.882 123.831L998.384 122.51ZM1045.57 77.9526L1046.98 79.3755L1044.82 76.0984L1045.57 77.9526ZM982.61 104.063L981.072 105.341L982.024 106.487L983.394 105.903L982.61 104.063ZM867.254 -88.4734L866.662 -90.3837L864.765 -89.7958L865.34 -87.8946L867.254 -88.4734ZM1143 -93.1478L1144.98 -92.8399L1145.24 -94.5507L1143.59 -95.0595L1143 -93.1478ZM1129.18 6.6697L1127.2 6.42524L1130.99 7.52774L1129.18 6.6697ZM1171.67 -82.7887L1172.45 -84.6329L1170.69 -85.3718L1169.87 -83.6467L1171.67 -82.7887ZM1226.35 -51.8794L1227.54 -53.4839L1227.54 -53.4839L1226.35 -51.8794ZM1357.86 65.3976L1359.15 66.9196L1360.78 65.5339L1359.29 64.003L1357.86 65.3976ZM1283.34 128.926L1282.04 127.404L1284.32 130.671L1283.34 128.926ZM1371.53 79.543L1372.97 78.1564L1371.9 77.0434L1370.55 77.798L1371.53 79.543ZM1494.82 180.721L1493.78 179.011C1436.7 213.677 1328.92 258.515 1225.4 253.557L1225.3 255.555L1225.2 257.552C1329.82 262.563 1438.4 217.325 1495.86 182.43L1494.82 180.721ZM1225.3 255.555L1227.25 255.988C1231.18 238.281 1234.54 222.014 1236.38 210.694C1237.29 205.063 1237.85 200.543 1237.88 197.666C1237.89 196.938 1237.87 196.269 1237.8 195.688C1237.74 195.148 1237.61 194.506 1237.32 193.946C1237 193.339 1236.25 192.475 1234.97 192.544C1234 192.596 1233.31 193.195 1232.97 193.536L1234.38 194.954L1235.79 196.372C1235.99 196.178 1235.76 196.506 1235.18 196.538C1234.29 196.586 1233.85 195.951 1233.78 195.81C1233.73 195.715 1233.78 195.775 1233.83 196.161C1233.87 196.505 1233.89 196.984 1233.88 197.613C1233.85 200.166 1233.34 204.426 1232.43 210.054C1230.61 221.253 1227.28 237.425 1223.35 255.121L1225.3 255.555ZM1234.38 194.954L1232.97 193.536C1231.67 194.83 1229.62 197.509 1227.11 201.055C1224.56 204.652 1221.44 209.277 1217.97 214.574C1211.03 225.17 1202.67 238.5 1194.63 251.771L1196.34 252.807L1198.05 253.843C1206.07 240.604 1214.41 227.315 1221.32 216.765C1224.77 211.489 1227.86 206.91 1230.37 203.368C1232.92 199.777 1234.78 197.384 1235.79 196.372L1234.38 194.954ZM1196.34 252.807L1196.62 250.827C1151.34 244.293 1107.94 226.907 1071.11 193.482L1069.77 194.963L1068.42 196.444C1105.94 230.49 1150.12 248.158 1196.05 254.786L1196.34 252.807ZM1069.77 194.963L1071.11 193.482C1044.48 169.317 1020.81 144.985 999.886 121.19L998.384 122.51L996.882 123.831C1017.9 147.734 1041.68 172.174 1068.42 196.444L1069.77 194.963ZM998.384 122.51L999.722 123.996C1017.23 108.227 1035.12 91.0939 1046.98 79.3755L1045.57 77.9526L1044.17 76.5297C1032.34 88.215 1014.5 105.304 997.046 121.024L998.384 122.51ZM1045.57 77.9526L1044.82 76.0984C1027.79 82.9858 1003.98 92.7833 981.827 102.223L982.61 104.063L983.394 105.903C1005.52 96.4751 1029.31 86.6873 1046.32 79.8067L1045.57 77.9526ZM982.61 104.063L984.148 102.784C914.528 19.0326 879.303 -55.5268 869.169 -89.0521L867.254 -88.4734L865.34 -87.8946C875.659 -53.7588 911.182 21.2653 981.072 105.341L982.61 104.063ZM867.254 -88.4734L867.846 -86.563C924.144 -104.008 1040.85 -122.458 1142.41 -91.2361L1143 -93.1478L1143.59 -95.0595C1040.97 -126.603 923.391 -107.962 866.662 -90.3837L867.254 -88.4734ZM1143 -93.1478L1141.03 -93.4557C1135.63 -58.8169 1130.5 -20.3813 1127.2 6.42524L1129.18 6.6697L1131.17 6.91416C1134.47 -19.8635 1139.59 -58.2548 1144.98 -92.8399L1143 -93.1478ZM1129.18 6.6697L1130.99 7.52774L1173.48 -81.9306L1171.67 -82.7887L1169.87 -83.6467L1127.38 5.81166L1129.18 6.6697ZM1171.67 -82.7887L1170.9 -80.9444C1190.03 -72.9174 1208.3 -62.8186 1225.16 -50.275L1226.35 -51.8794L1227.54 -53.4839C1210.4 -66.2408 1191.84 -76.4944 1172.45 -84.6329L1171.67 -82.7887ZM1226.35 -51.8794L1225.16 -50.275C1280.4 -9.1585 1321.79 31.1991 1356.42 66.7923L1357.86 65.3976L1359.29 64.003C1324.59 28.3429 1283.04 -12.185 1227.54 -53.4839L1226.35 -51.8794ZM1357.86 65.3976L1356.56 63.8757L1282.04 127.404L1283.34 128.926L1284.64 130.448L1359.15 66.9196L1357.86 65.3976ZM1283.34 128.926L1284.32 130.671C1307.95 117.436 1340.81 99.0401 1372.51 81.2881L1371.53 79.543L1370.55 77.798C1338.85 95.55 1306 113.946 1282.36 127.181L1283.34 128.926ZM1371.53 79.543L1370.09 80.9296C1393.1 104.853 1413.36 126.261 1433.18 143.655C1453.01 161.063 1472.52 174.55 1494.12 182.595L1494.82 180.721L1495.52 178.846C1474.55 171.038 1455.46 157.89 1435.82 140.649C1416.15 123.394 1396.04 102.14 1372.97 78.1564L1371.53 79.543Z" fill="#1D1D1D"/>
</g>
<g opacity="0.2">
<path d="M792.821 1490.72C735.547 1525.5 627.37 1570.54 523.301 1565.55C531.162 1530.15 536.684 1500.68 532.383 1504.95C527.745 1509.57 510.394 1536.3 494.338 1562.81C448.731 1556.23 404.94 1538.7 367.767 1504.96C341.081 1480.75 317.356 1456.36 296.384 1432.51C313.868 1416.77 331.727 1399.65 343.574 1387.95C326.547 1394.84 302.752 1404.63 280.61 1414.06C210.855 1330.15 175.481 1255.36 165.254 1221.53C221.767 1204.01 338.909 1185.47 441.002 1216.85C435.609 1251.46 430.484 1289.88 427.185 1316.67L469.673 1227.21C488.937 1235.29 507.352 1245.47 524.35 1258.12C579.721 1299.33 621.194 1339.77 655.856 1375.4L581.341 1438.93C604.975 1425.69 637.828 1407.3 669.53 1389.54C715.618 1437.45 750.255 1474.87 792.821 1490.72Z" fill="black" fill-opacity="0.05"/>
<path d="M792.821 1490.72L793.859 1492.43L797.388 1490.29L793.519 1488.85L792.821 1490.72ZM523.301 1565.55L521.348 1565.12L520.833 1567.44L523.205 1567.55L523.301 1565.55ZM532.383 1504.95L530.972 1503.54L530.972 1503.54L532.383 1504.95ZM494.338 1562.81L494.053 1564.79L495.363 1564.98L496.049 1563.84L494.338 1562.81ZM367.767 1504.96L366.423 1506.44L366.423 1506.44L367.767 1504.96ZM296.384 1432.51L295.046 1431.02L293.577 1432.35L294.882 1433.83L296.384 1432.51ZM343.574 1387.95L344.979 1389.38L342.824 1386.1L343.574 1387.95ZM280.61 1414.06L279.072 1415.34L280.024 1416.49L281.394 1415.9L280.61 1414.06ZM165.254 1221.53L164.662 1219.62L162.765 1220.2L163.34 1222.11L165.254 1221.53ZM441.002 1216.85L442.978 1217.16L443.245 1215.45L441.589 1214.94L441.002 1216.85ZM427.185 1316.67L425.2 1316.43L428.992 1317.53L427.185 1316.67ZM469.673 1227.21L470.447 1225.37L468.686 1224.63L467.867 1226.35L469.673 1227.21ZM524.35 1258.12L525.544 1256.52L525.544 1256.52L524.35 1258.12ZM655.856 1375.4L657.154 1376.92L658.779 1375.53L657.29 1374L655.856 1375.4ZM581.341 1438.93L580.043 1437.4L582.318 1440.67L581.341 1438.93ZM669.53 1389.54L670.971 1388.16L669.901 1387.04L668.553 1387.8L669.53 1389.54ZM792.821 1490.72L791.783 1489.01C734.697 1523.68 626.921 1568.51 523.396 1563.56L523.301 1565.55L523.205 1567.55C627.82 1572.56 736.397 1527.33 793.859 1492.43L792.821 1490.72ZM523.301 1565.55L525.253 1565.99C529.185 1548.28 532.541 1532.01 534.377 1520.69C535.29 1515.06 535.846 1510.54 535.884 1507.67C535.893 1506.94 535.871 1506.27 535.801 1505.69C535.737 1505.15 535.614 1504.51 535.319 1503.95C535 1503.34 534.246 1502.47 532.968 1502.54C532 1502.6 531.315 1503.2 530.972 1503.54L532.383 1504.95L533.793 1506.37C533.988 1506.18 533.764 1506.51 533.184 1506.54C532.293 1506.59 531.855 1505.95 531.78 1505.81C531.731 1505.72 531.784 1505.78 531.83 1506.16C531.87 1506.5 531.892 1506.98 531.884 1507.61C531.85 1510.17 531.341 1514.43 530.428 1520.05C528.613 1531.25 525.277 1547.43 521.348 1565.12L523.301 1565.55ZM532.383 1504.95L530.972 1503.54C529.671 1504.83 527.622 1507.51 525.108 1511.06C522.559 1514.65 519.438 1519.28 515.969 1524.57C509.03 1535.17 500.665 1548.5 492.628 1561.77L494.338 1562.81L496.049 1563.84C504.068 1550.6 512.407 1537.31 519.316 1526.77C522.771 1521.49 525.861 1516.91 528.371 1513.37C530.917 1509.78 532.776 1507.38 533.793 1506.37L532.383 1504.95ZM494.338 1562.81L494.624 1560.83C449.343 1554.29 405.942 1536.91 369.111 1503.48L367.767 1504.96L366.423 1506.44C403.938 1540.49 448.118 1558.16 494.053 1564.79L494.338 1562.81ZM367.767 1504.96L369.111 1503.48C342.483 1479.32 318.81 1454.99 297.886 1431.19L296.384 1432.51L294.882 1433.83C315.901 1457.73 339.679 1482.17 366.423 1506.44L367.767 1504.96ZM296.384 1432.51L297.722 1434C315.234 1418.23 333.115 1401.09 344.979 1389.38L343.574 1387.95L342.168 1386.53C330.338 1398.22 312.502 1415.3 295.046 1431.02L296.384 1432.51ZM343.574 1387.95L342.824 1386.1C325.789 1392.99 301.982 1402.78 279.827 1412.22L280.61 1414.06L281.394 1415.9C303.522 1406.48 327.306 1396.69 344.323 1389.81L343.574 1387.95ZM280.61 1414.06L282.148 1412.78C212.528 1329.03 177.303 1254.47 167.169 1220.95L165.254 1221.53L163.34 1222.11C173.659 1256.24 209.182 1331.27 279.072 1415.34L280.61 1414.06ZM165.254 1221.53L165.846 1223.44C222.144 1205.99 338.845 1187.54 440.414 1218.76L441.002 1216.85L441.589 1214.94C338.972 1183.4 221.391 1202.04 164.662 1219.62L165.254 1221.53ZM441.002 1216.85L439.026 1216.54C433.629 1251.18 428.501 1289.62 425.2 1316.43L427.185 1316.67L429.17 1316.91C432.468 1290.14 437.59 1251.75 442.978 1217.16L441.002 1216.85ZM427.185 1316.67L428.992 1317.53L471.48 1228.07L469.673 1227.21L467.867 1226.35L425.378 1315.81L427.185 1316.67ZM469.673 1227.21L468.899 1229.06C488.031 1237.08 506.301 1247.18 523.156 1259.73L524.35 1258.12L525.544 1256.52C508.402 1243.76 489.844 1233.51 470.447 1225.37L469.673 1227.21ZM524.35 1258.12L523.156 1259.73C578.404 1300.84 619.793 1341.2 654.423 1376.79L655.856 1375.4L657.29 1374C622.595 1338.34 581.037 1297.81 525.544 1256.52L524.35 1258.12ZM655.856 1375.4L654.559 1373.88L580.043 1437.4L581.341 1438.93L582.638 1440.45L657.154 1376.92L655.856 1375.4ZM581.341 1438.93L582.318 1440.67C605.952 1427.44 638.805 1409.04 670.507 1391.29L669.53 1389.54L668.553 1387.8C636.851 1405.55 603.998 1423.95 580.364 1437.18L581.341 1438.93ZM669.53 1389.54L668.089 1390.93C691.104 1414.85 711.357 1436.26 731.177 1453.66C751.013 1471.06 770.523 1484.55 792.123 1492.59L792.821 1490.72L793.519 1488.85C772.553 1481.04 753.462 1467.89 733.815 1450.65C714.154 1433.39 694.044 1412.14 670.971 1388.16L669.53 1389.54Z" fill="#1D1D1D"/>
</g>
<g opacity="0.3">
<path d="M832.176 2133.45C820.652 2067.44 818.122 1950.29 860.679 1855.19C890.785 1875.41 916.222 1891.29 913.806 1885.72C911.199 1879.72 892.627 1853.83 873.789 1829.22C896.534 1789.14 928.811 1754.75 973.771 1732.42C1006.05 1716.39 1037.4 1703.18 1067.25 1692.34C1075.54 1714.36 1084.97 1737.22 1091.55 1752.52C1091.35 1734.15 1090.9 1708.43 1090.18 1684.37C1193.74 1649.98 1276.28 1644.29 1311.51 1647.09C1307.23 1706.1 1281.82 1821.94 1215.4 1905.59C1185.13 1887.96 1151.22 1869.19 1127.48 1856.35L1195.31 1928.51C1180.76 1943.51 1164.57 1956.95 1146.6 1968.17C1088.05 2004.72 1035.28 2028.61 989.473 2047.91L957.459 1955.37C961.174 1982.21 966.336 2019.5 971.318 2055.49C909.913 2080.96 862.447 2099.58 832.176 2133.45Z" fill="black" fill-opacity="0.05"/>
<path d="M832.176 2133.45L830.206 2133.79L830.916 2137.86L833.667 2134.78L832.176 2133.45ZM860.679 1855.19L861.794 1853.53L859.823 1852.2L858.853 1854.37L860.679 1855.19ZM913.806 1885.72L915.64 1884.93L915.64 1884.93L913.806 1885.72ZM873.789 1829.22L872.05 1828.23L871.397 1829.38L872.201 1830.43L873.789 1829.22ZM973.771 1732.42L972.882 1730.63L972.882 1730.63L973.771 1732.42ZM1067.25 1692.34L1069.12 1691.63L1068.43 1689.78L1066.57 1690.46L1067.25 1692.34ZM1091.55 1752.52L1089.72 1753.31L1093.55 1752.5L1091.55 1752.52ZM1090.18 1684.37L1089.55 1682.47L1088.13 1682.94L1088.18 1684.43L1090.18 1684.37ZM1311.51 1647.09L1313.5 1647.23L1313.65 1645.25L1311.67 1645.09L1311.51 1647.09ZM1215.4 1905.59L1214.39 1907.32L1215.89 1908.19L1216.97 1906.83L1215.4 1905.59ZM1127.48 1856.35L1128.43 1854.59L1126.02 1857.72L1127.48 1856.35ZM1195.31 1928.51L1196.74 1929.91L1198.07 1928.54L1196.76 1927.14L1195.31 1928.51ZM1146.6 1968.17L1147.66 1969.87L1147.66 1969.87L1146.6 1968.17ZM989.473 2047.91L987.583 2048.57L988.281 2050.58L990.249 2049.76L989.473 2047.91ZM957.459 1955.37L959.349 1954.72L955.478 1955.65L957.459 1955.37ZM971.318 2055.49L972.084 2057.34L973.511 2056.75L973.299 2055.22L971.318 2055.49ZM832.176 2133.45L834.146 2133.1C822.66 2067.31 820.17 1950.61 862.504 1856L860.679 1855.19L858.853 1854.37C816.073 1949.97 818.644 2067.57 830.206 2133.79L832.176 2133.45ZM860.679 1855.19L859.564 1856.85C874.622 1866.96 888.548 1876.01 898.421 1881.85C903.332 1884.75 907.339 1886.91 910.005 1888C910.679 1888.27 911.31 1888.49 911.876 1888.64C912.403 1888.78 913.046 1888.9 913.675 1888.83C914.356 1888.75 915.436 1888.36 915.837 1887.15C916.141 1886.23 915.832 1885.37 915.64 1884.93L913.806 1885.72L911.971 1886.52C912.081 1886.77 911.857 1886.44 912.039 1885.89C912.318 1885.05 913.07 1884.87 913.228 1884.85C913.334 1884.84 913.259 1884.87 912.883 1884.77C912.548 1884.68 912.094 1884.53 911.511 1884.29C909.146 1883.33 905.364 1881.3 900.456 1878.4C890.688 1872.63 876.842 1863.63 861.794 1853.53L860.679 1855.19ZM913.806 1885.72L915.64 1884.93C914.909 1883.24 913.161 1880.36 910.774 1876.73C908.353 1873.04 905.183 1868.45 901.514 1863.29C894.174 1852.97 884.808 1840.32 875.378 1828L873.789 1829.22L872.201 1830.43C881.609 1842.72 890.947 1855.33 898.254 1865.61C901.909 1870.75 905.048 1875.3 907.431 1878.92C909.848 1882.6 911.399 1885.2 911.971 1886.52L913.806 1885.72ZM873.789 1829.22L875.529 1830.2C898.111 1790.42 930.115 1756.33 974.661 1734.21L973.771 1732.42L972.882 1730.63C927.508 1753.16 894.958 1787.87 872.05 1828.23L873.789 1829.22ZM973.771 1732.42L974.661 1734.21C1006.87 1718.22 1038.15 1705.04 1067.93 1694.22L1067.25 1692.34L1066.57 1690.46C1036.65 1701.32 1005.23 1714.56 972.882 1730.63L973.771 1732.42ZM1067.25 1692.34L1065.38 1693.04C1073.69 1715.1 1083.13 1737.99 1089.72 1753.31L1091.55 1752.52L1093.39 1751.73C1086.82 1736.45 1077.4 1713.62 1069.12 1691.63L1067.25 1692.34ZM1091.55 1752.52L1093.55 1752.5C1093.35 1734.12 1092.9 1708.38 1092.18 1684.31L1090.18 1684.37L1088.18 1684.43C1088.9 1708.47 1089.35 1734.19 1089.55 1752.54L1091.55 1752.52ZM1090.18 1684.37L1090.81 1686.27C1194.17 1651.95 1276.44 1646.31 1311.35 1649.08L1311.51 1647.09L1311.67 1645.09C1276.12 1642.27 1193.31 1648.02 1089.55 1682.47L1090.18 1684.37ZM1311.51 1647.09L1309.51 1646.94C1305.25 1705.73 1279.91 1821.13 1213.83 1904.34L1215.4 1905.59L1216.97 1906.83C1283.73 1822.76 1309.21 1706.47 1313.5 1647.23L1311.51 1647.09ZM1215.4 1905.59L1216.41 1903.86C1186.11 1886.21 1152.19 1867.43 1128.43 1854.59L1127.48 1856.35L1126.52 1858.11C1150.26 1870.94 1184.15 1889.7 1214.39 1907.32L1215.4 1905.59ZM1127.48 1856.35L1126.02 1857.72L1193.85 1929.88L1195.31 1928.51L1196.76 1927.14L1128.93 1854.98L1127.48 1856.35ZM1195.31 1928.51L1193.87 1927.12C1179.43 1942.01 1163.36 1955.35 1145.54 1966.47L1146.6 1968.17L1147.66 1969.87C1165.79 1958.55 1182.1 1945.01 1196.74 1929.91L1195.31 1928.51ZM1146.6 1968.17L1145.54 1966.47C1087.12 2002.95 1034.46 2026.79 988.696 2046.07L989.473 2047.91L990.249 2049.76C1036.1 2030.44 1088.98 2006.5 1147.66 1969.87L1146.6 1968.17ZM989.473 2047.91L991.363 2047.26L959.349 1954.72L957.459 1955.37L955.569 1956.03L987.583 2048.57L989.473 2047.91ZM957.459 1955.37L955.478 1955.65C959.193 1982.48 964.355 2019.78 969.337 2055.77L971.318 2055.49L973.299 2055.22C968.317 2019.23 963.155 1981.93 959.44 1955.1L957.459 1955.37ZM971.318 2055.49L970.552 2053.65C939.888 2066.36 912.573 2077.42 889.153 2089.55C865.715 2101.68 846.046 2114.93 830.685 2132.12L832.176 2133.45L833.667 2134.78C848.578 2118.1 867.777 2105.11 890.991 2093.1C914.223 2081.07 941.343 2070.09 972.084 2057.34L971.318 2055.49Z" fill="#1D1D1D"/>
</g>
<g opacity="0.22">
<path d="M158.305 2227.21C93.5583 2209.95 -13.8254 2163.05 -82.2655 2084.5C-51.2732 2065.66 -26.1783 2049.25 -32.2429 2049.1C-38.7827 2048.95 -70.084 2054.93 -100.33 2061.69C-127.15 2024.22 -144.812 1980.48 -146.196 1930.3C-147.19 1894.28 -146.014 1860.28 -143.318 1828.64C-119.853 1830.36 -95.1416 1831.4 -78.4957 1831.85C-95.2494 1824.33 -118.788 1813.93 -140.923 1804.48C-128.646 1696.05 -99.1542 1618.75 -81.8175 1587.96C-30.0609 1616.62 64.4085 1688.32 112.428 1783.73C83.7158 1803.8 52.4452 1826.69 30.8252 1842.85L124.798 1811.59C132.3 1831.09 137.702 1851.42 140.338 1872.45C148.926 1940.93 148.446 1998.86 146.727 2048.54L49.299 2038.73C75.2104 2046.63 111.227 2057.6 145.983 2068.2C143.311 2134.62 140.281 2185.52 158.305 2227.21Z" fill="black" fill-opacity="0.05"/>
<path d="M158.305 2227.21L157.79 2229.14L161.779 2230.21L160.141 2226.42L158.305 2227.21ZM-82.2655 2084.5L-83.3041 2082.79L-85.333 2084.02L-83.7735 2085.81L-82.2655 2084.5ZM-32.2429 2049.1L-32.1956 2047.1L-32.1959 2047.1L-32.2429 2049.1ZM-100.33 2061.69L-101.956 2062.86L-101.186 2063.93L-99.8935 2063.64L-100.33 2061.69ZM-146.196 1930.3L-148.196 1930.36L-148.196 1930.36L-146.196 1930.3ZM-143.318 1828.64L-143.172 1826.64L-145.143 1826.5L-145.311 1828.47L-143.318 1828.64ZM-78.4957 1831.85L-78.5497 1833.85L-77.6764 1830.03L-78.4957 1831.85ZM-140.923 1804.48L-142.91 1804.26L-143.078 1805.74L-141.708 1806.32L-140.923 1804.48ZM-81.8175 1587.96L-80.8486 1586.21L-82.5861 1585.24L-83.5604 1586.97L-81.8175 1587.96ZM112.428 1783.73L113.574 1785.37L114.993 1784.38L114.215 1782.83L112.428 1783.73ZM30.8252 1842.85L29.6277 1841.25L31.4565 1844.75L30.8252 1842.85ZM124.798 1811.59L126.665 1810.87L125.979 1809.09L124.167 1809.69L124.798 1811.59ZM140.338 1872.45L142.322 1872.2L142.322 1872.2L140.338 1872.45ZM146.727 2048.54L146.527 2050.53L148.652 2050.74L148.726 2048.6L146.727 2048.54ZM49.299 2038.73L49.4992 2036.74L48.716 2040.64L49.299 2038.73ZM145.983 2068.2L147.982 2068.28L148.044 2066.73L146.566 2066.28L145.983 2068.2ZM158.305 2227.21L158.82 2225.28C94.2865 2208.08 -12.676 2161.33 -80.7575 2083.18L-82.2655 2084.5L-83.7735 2085.81C-14.9749 2164.78 92.8301 2211.83 157.79 2229.14L158.305 2227.21ZM-82.2655 2084.5L-81.2269 2086.21C-65.7258 2076.79 -51.6624 2067.95 -42.2223 2061.44C-37.5263 2058.2 -33.8797 2055.47 -31.7768 2053.51C-31.245 2053.01 -30.7777 2052.53 -30.4061 2052.08C-30.061 2051.66 -29.6824 2051.12 -29.4824 2050.52C-29.2658 2049.87 -29.1637 2048.73 -30.0979 2047.86C-30.8055 2047.19 -31.7129 2047.11 -32.1956 2047.1L-32.2429 2049.1L-32.2902 2051.1C-32.0149 2051.11 -32.4076 2051.17 -32.8316 2050.78C-33.4823 2050.17 -33.3278 2049.41 -33.2775 2049.26C-33.2438 2049.16 -33.2502 2049.24 -33.4966 2049.54C-33.7166 2049.81 -34.0472 2050.15 -34.5074 2050.58C-36.3727 2052.33 -39.7998 2054.91 -44.4934 2058.14C-53.8326 2064.59 -67.8129 2073.37 -83.3041 2082.79L-82.2655 2084.5ZM-32.2429 2049.1L-32.1959 2047.1C-34.0308 2047.06 -37.3826 2047.44 -41.6819 2048.08C-46.0423 2048.73 -51.5397 2049.68 -57.7639 2050.84C-70.2151 2053.16 -85.6253 2056.36 -100.766 2059.74L-100.33 2061.69L-99.8935 2063.64C-84.7886 2060.27 -69.4252 2057.09 -57.0293 2054.77C-50.83 2053.61 -45.3855 2052.67 -41.0924 2052.03C-36.7382 2051.38 -33.7249 2051.07 -32.2899 2051.1L-32.2429 2049.1ZM-100.33 2061.69L-98.7035 2060.53C-125.331 2023.33 -142.826 1979.97 -144.197 1930.25L-146.196 1930.3L-148.196 1930.36C-146.799 1981 -128.968 2025.12 -101.956 2062.86L-100.33 2061.69ZM-146.196 1930.3L-144.197 1930.25C-145.189 1894.31 -144.015 1860.38 -141.325 1828.81L-143.318 1828.64L-145.311 1828.47C-148.013 1860.18 -149.192 1894.26 -148.196 1930.36L-146.196 1930.3ZM-143.318 1828.64L-143.464 1830.63C-119.962 1832.35 -95.2192 1833.4 -78.5497 1833.85L-78.4957 1831.85L-78.4416 1829.85C-95.064 1829.4 -119.743 1828.36 -143.172 1826.64L-143.318 1828.64ZM-78.4957 1831.85L-77.6764 1830.03C-94.4386 1822.5 -117.989 1812.1 -140.138 1802.64L-140.923 1804.48L-141.708 1806.32C-119.587 1815.77 -96.0603 1826.16 -79.3149 1833.67L-78.4957 1831.85ZM-140.923 1804.48L-138.935 1804.71C-126.683 1696.49 -97.2549 1619.46 -80.0747 1588.94L-81.8175 1587.96L-83.5604 1586.97C-101.053 1618.05 -130.61 1695.62 -142.91 1804.26L-140.923 1804.48ZM-81.8175 1587.96L-82.7865 1589.71C-31.2271 1618.26 62.8686 1689.71 110.642 1784.63L112.428 1783.73L114.215 1782.83C65.9483 1686.94 -28.8946 1614.98 -80.8486 1586.21L-81.8175 1587.96ZM112.428 1783.73L111.283 1782.09C82.5479 1802.17 51.2593 1825.08 29.6277 1841.25L30.8252 1842.85L32.0228 1844.45C53.6311 1828.3 84.8838 1805.42 113.574 1785.37L112.428 1783.73ZM30.8252 1842.85L31.4565 1844.75L125.43 1813.49L124.798 1811.59L124.167 1809.69L30.194 1840.95L30.8252 1842.85ZM124.798 1811.59L122.932 1812.31C130.381 1831.67 135.739 1851.85 138.354 1872.7L140.338 1872.45L142.322 1872.2C139.664 1851 134.218 1830.51 126.665 1810.87L124.798 1811.59ZM140.338 1872.45L138.354 1872.7C146.922 1941.03 146.445 1998.84 144.728 2048.47L146.727 2048.54L148.726 2048.6C150.446 1998.88 150.929 1940.84 142.322 1872.2L140.338 1872.45ZM146.727 2048.54L146.927 2046.55L49.4992 2036.74L49.299 2038.73L49.0988 2040.72L146.527 2050.53L146.727 2048.54ZM49.299 2038.73L48.716 2040.64C74.6274 2048.54 110.644 2059.52 145.4 2070.11L145.983 2068.2L146.566 2066.28C111.81 2055.69 75.7934 2044.71 49.882 2036.82L49.299 2038.73ZM145.983 2068.2L143.985 2068.12C142.65 2101.29 141.219 2130.72 142.385 2157.07C143.552 2183.43 147.323 2206.85 156.469 2228L158.305 2227.21L160.141 2226.42C151.263 2205.88 147.537 2183 146.381 2156.89C145.224 2130.75 146.644 2101.53 147.982 2068.28L145.983 2068.2Z" fill="#1D1D1D"/>
</g>
<g opacity="0.22">
<path d="M340.645 554C342.933 607.678 332.749 701.078 289.014 772.254C267.184 753.045 248.615 737.771 249.956 742.446C251.404 747.487 263.473 770.009 275.887 791.536C253.632 821.029 224.39 845.013 186.321 858.083C158.993 867.465 132.691 874.703 107.83 880.215C103.529 861.846 98.415 842.686 94.7752 829.84C93.0284 844.461 90.7079 864.963 88.7746 884.163C2.86176 900.721 -63.3514 896.655 -91.0691 890.759C-81.5222 844.292 -49.2609 754.837 12.2533 695.255C34.4813 712.424 59.4834 730.875 77.0276 743.551L30.6159 679.122C43.7411 668.714 58.0061 659.712 73.4637 652.662C123.817 629.698 168.26 616.201 206.686 605.626L222.503 682.528C222.343 660.81 222.125 630.621 221.911 601.489C273.379 587.636 313.053 577.771 340.645 554Z" fill="black" fill-opacity="0.05"/>
<path d="M340.645 554L342.643 553.915L342.467 549.79L339.339 552.485L340.645 554ZM289.014 772.254L287.693 773.756L289.475 775.324L290.718 773.301L289.014 772.254ZM249.956 742.446L248.034 742.998L248.034 742.998L249.956 742.446ZM275.887 791.536L277.484 792.741L278.281 791.684L277.62 790.537L275.887 791.536ZM186.321 858.083L186.971 859.975L186.971 859.975L186.321 858.083ZM107.83 880.215L105.883 880.671L106.333 882.595L108.263 882.167L107.83 880.215ZM94.7752 829.84L96.6995 829.295L92.7893 829.603L94.7752 829.84ZM88.7746 884.163L89.1531 886.127L90.6153 885.845L90.7645 884.363L88.7746 884.163ZM-91.0691 890.759L-93.0282 890.357L-93.4279 892.302L-91.4852 892.716L-91.0691 890.759ZM12.2533 695.255L13.4759 693.672L12.1056 692.614L10.8618 693.819L12.2533 695.255ZM77.0276 743.551L75.8564 745.172L78.6504 742.382L77.0276 743.551ZM30.6159 679.122L29.3733 677.554L27.8768 678.741L28.9931 680.291L30.6159 679.122ZM73.4637 652.662L72.6338 650.842L72.6338 650.842L73.4637 652.662ZM206.686 605.626L208.645 605.223L208.215 603.13L206.155 603.697L206.686 605.626ZM222.503 682.528L220.544 682.931L224.503 682.514L222.503 682.528ZM221.911 601.489L221.391 599.558L219.9 599.959L219.911 601.504L221.911 601.489ZM340.645 554L338.646 554.085C340.926 607.543 330.759 700.496 287.31 771.207L289.014 772.254L290.718 773.301C334.739 701.66 344.941 607.813 342.643 553.915L340.645 554ZM289.014 772.254L290.335 770.753C279.416 761.144 269.28 752.491 262.028 746.818C258.425 744 255.445 741.846 253.41 740.691C252.894 740.398 252.399 740.146 251.942 739.961C251.524 739.792 250.971 739.608 250.391 739.597C249.757 739.585 248.672 739.812 248.132 740.93C247.728 741.769 247.921 742.606 248.034 742.998L249.956 742.446L251.879 741.894C251.823 741.702 252.004 742.11 251.735 742.668C251.331 743.506 250.528 743.6 250.317 743.596C250.159 743.593 250.167 743.558 250.441 743.669C250.677 743.764 251.005 743.925 251.436 744.169C253.188 745.164 255.963 747.152 259.564 749.969C266.719 755.566 276.782 764.155 287.693 773.756L289.014 772.254ZM249.956 742.446L248.034 742.998C248.451 744.451 249.556 746.956 251.073 750.088C252.617 753.275 254.662 757.259 257.043 761.746C261.806 770.723 267.938 781.756 274.155 792.535L275.887 791.536L277.62 790.537C271.422 779.789 265.313 768.798 260.576 759.871C258.207 755.407 256.187 751.47 254.673 748.344C253.132 745.162 252.185 742.962 251.878 741.894L249.956 742.446ZM275.887 791.536L274.291 790.331C252.235 819.56 223.304 843.271 185.672 856.191L186.321 858.083L186.971 859.975C225.476 846.755 255.03 822.497 277.484 792.741L275.887 791.536ZM186.321 858.083L185.672 856.191C158.418 865.548 132.188 872.766 107.397 878.262L107.83 880.215L108.263 882.167C133.194 876.641 159.568 869.382 186.971 859.975L186.321 858.083ZM107.83 880.215L109.777 879.759C105.468 861.354 100.346 842.163 96.6995 829.295L94.7752 829.84L92.851 830.385C96.4843 843.208 101.59 862.338 105.883 880.671L107.83 880.215ZM94.7752 829.84L92.7893 829.603C91.0415 844.233 88.7195 864.747 86.7847 883.962L88.7746 884.163L90.7645 884.363C92.6963 865.178 95.0154 844.689 96.7611 830.077L94.7752 829.84ZM88.7746 884.163L88.3961 882.199C2.69028 898.717 -63.2473 894.632 -90.653 888.803L-91.0691 890.759L-91.4852 892.716C-63.4555 898.677 3.03324 902.724 89.1531 886.127L88.7746 884.163ZM-91.0691 890.759L-89.11 891.162C-79.6085 844.916 -47.4754 755.892 13.6448 696.692L12.2533 695.255L10.8618 693.819C-51.0463 753.782 -83.4359 843.669 -93.0282 890.357L-91.0691 890.759ZM12.2533 695.255L11.0307 696.838C33.2803 714.024 58.3004 732.488 75.8564 745.172L77.0276 743.551L78.1989 741.929C60.6665 729.262 35.6824 710.825 13.4759 693.672L12.2533 695.255ZM77.0276 743.551L78.6504 742.382L32.2387 677.953L30.6159 679.122L28.9931 680.291L75.4049 744.72L77.0276 743.551ZM30.6159 679.122L31.8585 680.689C44.871 670.371 58.9988 661.457 74.2936 654.482L73.4637 652.662L72.6338 650.842C57.0134 657.966 42.6113 667.058 29.3733 677.554L30.6159 679.122ZM73.4637 652.662L74.2936 654.482C124.508 631.581 168.835 618.117 207.217 607.554L206.686 605.626L206.155 603.697C167.684 614.285 123.126 627.815 72.6338 650.842L73.4637 652.662ZM206.686 605.626L204.727 606.028L220.544 682.931L222.503 682.528L224.462 682.126L208.645 605.223L206.686 605.626ZM222.503 682.528L224.503 682.514C224.343 660.795 224.125 630.607 223.911 601.474L221.911 601.489L219.911 601.504C220.125 630.635 220.343 660.825 220.503 682.543L222.503 682.528ZM221.911 601.489L222.431 603.42C248.125 596.505 271.012 590.55 290.912 583.344C310.831 576.132 327.898 567.621 341.95 555.515L340.645 554L339.339 552.485C325.799 564.15 309.233 572.457 289.551 579.583C269.849 586.717 247.165 592.62 221.391 599.558L221.911 601.489Z" fill="#1D1D1D"/>
</g>
<g opacity="0.22">
<path d="M733.468 683C786.272 692.917 874.944 723.972 934.378 782.678C910.728 799.595 891.648 814.227 896.505 813.978C901.743 813.708 926.412 807.048 950.19 799.827C973.881 828.179 990.626 862.089 994.743 902.128C997.699 930.871 998.797 958.129 998.54 983.592C979.675 983.624 959.854 984.27 946.518 984.909C960.365 989.919 979.809 996.818 998.074 1003.05C994.762 1090.48 975.819 1154.05 963.804 1179.72C920.703 1159.9 840.868 1108.24 796.751 1034.84C818.504 1017.07 842.134 996.892 858.451 982.671L785.191 1013.3C778.024 998.16 772.482 982.228 769.113 965.576C758.138 911.333 755.048 864.988 753.442 825.166L831.93 827.161C810.738 822.402 781.283 815.784 752.858 809.4C751.011 756.132 750.379 715.255 733.468 683Z" fill="black" fill-opacity="0.05"/>
<path d="M733.468 683L733.837 681.034L729.779 680.272L731.696 683.929L733.468 683ZM934.378 782.678L935.542 784.305L937.472 782.923L935.783 781.255L934.378 782.678ZM896.505 813.978L896.607 815.975L896.608 815.975L896.505 813.978ZM950.19 799.827L951.724 798.545L950.875 797.529L949.608 797.914L950.19 799.827ZM994.743 902.128L996.733 901.924L996.733 901.924L994.743 902.128ZM998.54 983.592L998.543 985.592L1000.52 985.588L1000.54 983.612L998.54 983.592ZM946.518 984.909L946.422 982.911L945.838 986.79L946.518 984.909ZM998.074 1003.05L1000.07 1003.12L1000.13 1001.63L998.719 1001.15L998.074 1003.05ZM963.804 1179.72L962.969 1181.53L964.774 1182.36L965.616 1180.57L963.804 1179.72ZM796.751 1034.84L795.486 1033.29L794.145 1034.38L795.037 1035.87L796.751 1034.84ZM858.451 982.671L859.765 984.178L857.679 980.825L858.451 982.671ZM785.191 1013.3L783.383 1014.16L784.2 1015.88L785.962 1015.14L785.191 1013.3ZM769.113 965.576L767.153 965.973L767.153 965.973L769.113 965.576ZM753.442 825.166L753.493 823.166L751.358 823.112L751.444 825.246L753.442 825.166ZM831.93 827.161L831.879 829.16L832.368 825.209L831.93 827.161ZM752.858 809.4L750.859 809.469L750.913 811.013L752.42 811.351L752.858 809.4ZM733.468 683L733.099 684.966C785.686 694.842 873.927 725.778 932.972 784.101L934.378 782.678L935.783 781.255C875.961 722.165 786.857 690.992 733.837 681.034L733.468 683ZM934.378 782.678L933.214 781.051C921.385 789.513 910.662 797.428 903.496 803.208C899.935 806.08 897.162 808.495 895.577 810.216C895.175 810.652 894.817 811.077 894.534 811.481C894.274 811.85 893.97 812.347 893.828 812.91C893.674 813.524 893.649 814.633 894.616 815.411C895.341 815.995 896.2 815.996 896.607 815.975L896.505 813.978L896.403 811.98C896.203 811.991 896.641 811.907 897.124 812.295C897.848 812.878 897.759 813.681 897.707 813.886C897.669 814.04 897.636 814.024 897.806 813.782C897.952 813.574 898.183 813.29 898.519 812.926C899.884 811.445 902.448 809.192 906.007 806.322C913.078 800.619 923.721 792.76 935.542 784.305L934.378 782.678ZM896.505 813.978L896.608 815.975C898.117 815.897 900.808 815.388 904.201 814.619C907.655 813.836 911.999 812.746 916.908 811.442C926.73 808.834 938.864 805.357 950.771 801.741L950.19 799.827L949.608 797.914C937.737 801.519 925.649 804.982 915.882 807.576C910.997 808.874 906.705 809.95 903.317 810.718C899.87 811.499 897.512 811.923 896.402 811.98L896.505 813.978ZM950.19 799.827L948.655 801.11C972.135 829.208 988.684 862.753 992.754 902.333L994.743 902.128L996.733 901.924C992.569 861.425 975.628 827.15 951.724 798.545L950.19 799.827ZM994.743 902.128L992.754 902.333C995.701 930.998 996.797 958.18 996.54 983.571L998.54 983.592L1000.54 983.612C1000.8 958.077 999.696 930.744 996.733 901.924L994.743 902.128ZM998.54 983.592L998.537 981.592C979.634 981.624 959.782 982.272 946.422 982.911L946.518 984.909L946.614 986.907C959.926 986.269 979.716 985.624 998.543 985.592L998.54 983.592ZM946.518 984.909L945.838 986.79C959.693 991.803 979.149 998.706 997.428 1004.94L998.074 1003.05L998.719 1001.15C980.469 994.93 961.037 988.035 947.199 983.028L946.518 984.909ZM998.074 1003.05L996.075 1002.97C992.771 1090.19 973.872 1153.49 961.993 1178.87L963.804 1179.72L965.616 1180.57C977.765 1154.61 996.753 1090.76 1000.07 1003.12L998.074 1003.05ZM963.804 1179.72L964.64 1177.9C921.743 1158.18 842.3 1106.74 798.465 1033.81L796.751 1034.84L795.037 1035.87C839.437 1109.74 919.662 1161.63 962.969 1181.53L963.804 1179.72ZM796.751 1034.84L798.016 1036.39C819.791 1018.6 843.437 998.409 859.765 984.178L858.451 982.671L857.137 981.163C840.831 995.374 817.218 1015.54 795.486 1033.29L796.751 1034.84ZM858.451 982.671L857.679 980.825L784.419 1011.45L785.191 1013.3L785.962 1015.14L859.222 984.516L858.451 982.671ZM785.191 1013.3L786.999 1012.44C779.893 997.434 774.407 981.656 771.073 965.179L769.113 965.576L767.153 965.973C770.557 982.8 776.154 998.886 783.383 1014.16L785.191 1013.3ZM769.113 965.576L771.073 965.179C760.129 911.086 757.044 864.861 755.441 825.085L753.442 825.166L751.444 825.246C753.051 865.116 756.148 911.58 767.153 965.973L769.113 965.576ZM753.442 825.166L753.391 827.165L831.879 829.16L831.93 827.161L831.98 825.161L753.493 823.166L753.442 825.166ZM831.93 827.161L832.368 825.209C811.176 820.45 781.722 813.832 753.296 807.448L752.858 809.4L752.42 811.351C780.844 817.735 810.3 824.353 831.491 829.112L831.93 827.161ZM752.858 809.4L754.857 809.33C753.935 782.738 753.313 759.097 750.798 738.082C748.28 717.048 743.852 698.498 735.239 682.071L733.468 683L731.696 683.929C739.995 699.757 744.338 717.773 746.826 738.558C749.316 759.362 749.934 782.794 750.859 809.469L752.858 809.4Z" fill="#1D1D1D"/>
</g>
<g opacity="0.2">
<path d="M1684.2 1161C1692.95 1214.01 1694.11 1307.96 1659.29 1383.89C1635.3 1367.46 1615.02 1354.54 1616.92 1359.02C1618.96 1363.84 1633.66 1384.74 1648.59 1404.62C1630.05 1436.58 1603.92 1463.92 1567.71 1481.49C1541.71 1494.1 1516.48 1504.46 1492.46 1512.93C1485.97 1495.22 1478.59 1476.81 1473.42 1464.5C1473.45 1479.23 1473.62 1499.86 1474.02 1519.15C1390.74 1545.96 1324.52 1549.92 1296.29 1547.41C1300.16 1500.13 1321.38 1407.43 1375.26 1340.86C1399.4 1355.22 1426.44 1370.52 1445.39 1380.99L1391.54 1322.63C1403.31 1310.71 1416.38 1300.06 1430.88 1291.19C1478.09 1262.32 1520.58 1243.55 1557.45 1228.42L1582.43 1302.85C1579.65 1281.31 1575.79 1251.37 1572.06 1222.47C1621.48 1202.51 1659.68 1187.93 1684.2 1161Z" fill="black" fill-opacity="0.05"/>
<path d="M1684.2 1161L1686.17 1160.67L1685.5 1156.6L1682.72 1159.65L1684.2 1161ZM1659.29 1383.89L1658.16 1385.54L1660.12 1386.88L1661.11 1384.72L1659.29 1383.89ZM1616.92 1359.02L1615.08 1359.79L1615.08 1359.8L1616.92 1359.02ZM1648.59 1404.62L1650.32 1405.62L1650.98 1404.47L1650.18 1403.42L1648.59 1404.62ZM1567.71 1481.49L1568.58 1483.29L1568.58 1483.29L1567.71 1481.49ZM1492.46 1512.93L1490.58 1513.62L1491.26 1515.48L1493.13 1514.82L1492.46 1512.93ZM1473.42 1464.5L1475.27 1463.73L1471.42 1464.51L1473.42 1464.5ZM1474.02 1519.15L1474.63 1521.06L1476.05 1520.6L1476.02 1519.11L1474.02 1519.15ZM1296.29 1547.41L1294.3 1547.25L1294.13 1549.23L1296.11 1549.4L1296.29 1547.41ZM1375.26 1340.86L1376.28 1339.14L1374.79 1338.26L1373.7 1339.6L1375.26 1340.86ZM1445.39 1380.99L1444.42 1382.74L1446.86 1379.63L1445.39 1380.99ZM1391.54 1322.63L1390.12 1321.22L1388.77 1322.58L1390.07 1323.99L1391.54 1322.63ZM1430.88 1291.19L1429.84 1289.49L1429.84 1289.49L1430.88 1291.19ZM1557.45 1228.42L1559.35 1227.78L1558.67 1225.76L1556.69 1226.57L1557.45 1228.42ZM1582.43 1302.85L1580.54 1303.49L1584.42 1302.59L1582.43 1302.85ZM1572.06 1222.47L1571.31 1220.62L1569.88 1221.2L1570.08 1222.73L1572.06 1222.47ZM1684.2 1161L1682.22 1161.33C1690.94 1214.12 1692.07 1307.62 1657.47 1383.06L1659.29 1383.89L1661.11 1384.72C1696.16 1308.29 1694.96 1213.9 1686.17 1160.67L1684.2 1161ZM1659.29 1383.89L1660.42 1382.24C1648.42 1374.02 1637.31 1366.65 1629.43 1361.9C1625.51 1359.54 1622.29 1357.76 1620.14 1356.86C1619.59 1356.63 1619.07 1356.44 1618.59 1356.31C1618.15 1356.19 1617.58 1356.07 1617.01 1356.13C1616.38 1356.2 1615.33 1356.56 1614.92 1357.73C1614.62 1358.61 1614.92 1359.42 1615.08 1359.79L1616.92 1359.02L1618.76 1358.24C1618.68 1358.05 1618.91 1358.43 1618.71 1359.02C1618.41 1359.9 1617.63 1360.09 1617.42 1360.11C1617.26 1360.13 1617.26 1360.09 1617.55 1360.17C1617.79 1360.24 1618.14 1360.36 1618.6 1360.55C1620.45 1361.32 1623.45 1362.96 1627.36 1365.32C1635.14 1370.02 1646.17 1377.33 1658.16 1385.54L1659.29 1383.89ZM1616.92 1359.02L1615.08 1359.8C1615.67 1361.19 1617.07 1363.54 1618.95 1366.47C1620.87 1369.44 1623.38 1373.15 1626.28 1377.32C1632.09 1385.65 1639.51 1395.87 1646.99 1405.82L1648.59 1404.62L1650.18 1403.42C1642.73 1393.49 1635.34 1383.32 1629.56 1375.03C1626.67 1370.89 1624.19 1367.22 1622.31 1364.3C1620.4 1361.33 1619.19 1359.26 1618.76 1358.24L1616.92 1359.02ZM1648.59 1404.62L1646.86 1403.61C1628.49 1435.29 1602.63 1462.32 1566.83 1479.69L1567.71 1481.49L1568.58 1483.29C1605.21 1465.52 1631.62 1437.87 1650.32 1405.62L1648.59 1404.62ZM1567.71 1481.49L1566.83 1479.69C1540.91 1492.27 1515.74 1502.6 1491.8 1511.05L1492.46 1512.93L1493.13 1514.82C1517.21 1506.32 1542.51 1495.93 1568.58 1483.29L1567.71 1481.49ZM1492.46 1512.93L1494.34 1512.24C1487.84 1494.49 1480.44 1476.06 1475.27 1463.73L1473.42 1464.5L1471.58 1465.28C1476.73 1477.57 1484.11 1495.94 1490.58 1513.62L1492.46 1512.93ZM1473.42 1464.5L1471.42 1464.51C1471.45 1479.24 1471.62 1499.88 1472.02 1519.19L1474.02 1519.15L1476.02 1519.11C1475.62 1499.83 1475.45 1479.21 1475.42 1464.5L1473.42 1464.5ZM1474.02 1519.15L1473.41 1517.25C1390.32 1543.99 1324.38 1547.89 1296.47 1545.42L1296.29 1547.41L1296.11 1549.4C1324.66 1551.94 1391.15 1547.93 1474.63 1521.06L1474.02 1519.15ZM1296.29 1547.41L1298.28 1547.57C1302.13 1500.52 1323.28 1408.27 1376.81 1342.12L1375.26 1340.86L1373.7 1339.6C1319.49 1406.6 1298.18 1499.74 1294.3 1547.25L1296.29 1547.41ZM1375.26 1340.86L1374.23 1342.58C1398.4 1356.96 1425.46 1372.26 1444.42 1382.74L1445.39 1380.99L1446.35 1379.23C1427.42 1368.78 1400.39 1353.49 1376.28 1339.14L1375.26 1340.86ZM1445.39 1380.99L1446.86 1379.63L1393.01 1321.27L1391.54 1322.63L1390.07 1323.99L1443.92 1382.34L1445.39 1380.99ZM1391.54 1322.63L1392.96 1324.04C1404.63 1312.22 1417.58 1301.67 1431.92 1292.9L1430.88 1291.19L1429.84 1289.49C1415.19 1298.44 1401.99 1309.21 1390.12 1321.22L1391.54 1322.63ZM1430.88 1291.19L1431.92 1292.9C1479 1264.1 1521.38 1245.39 1558.21 1230.27L1557.45 1228.42L1556.69 1226.57C1519.78 1241.72 1477.18 1260.53 1429.84 1289.49L1430.88 1291.19ZM1557.45 1228.42L1555.55 1229.05L1580.54 1303.49L1582.43 1302.85L1584.33 1302.21L1559.35 1227.78L1557.45 1228.42ZM1582.43 1302.85L1584.42 1302.59C1581.64 1281.05 1577.78 1251.11 1574.05 1222.22L1572.06 1222.47L1570.08 1222.73C1573.81 1251.62 1577.67 1281.57 1580.45 1303.11L1582.43 1302.85ZM1572.06 1222.47L1572.81 1224.33C1597.48 1214.36 1619.48 1205.69 1638.37 1196.13C1657.27 1186.57 1673.19 1176.06 1685.68 1162.35L1684.2 1161L1682.72 1159.65C1670.68 1172.87 1655.24 1183.11 1636.56 1192.56C1617.87 1202.02 1596.06 1210.62 1571.31 1220.62L1572.06 1222.47Z" fill="#1D1D1D"/>
</g>
<g opacity="0.22">
<path d="M137.468 -159C190.272 -149.083 278.944 -118.028 338.378 -59.3221C314.728 -42.4053 295.648 -27.7734 300.505 -28.0223C305.743 -28.2916 330.412 -34.9518 354.19 -42.1727C377.881 -13.8213 394.626 20.0893 398.743 60.1281C401.699 88.8707 402.797 116.129 402.54 141.592C383.675 141.624 363.854 142.27 350.518 142.909C364.365 147.919 383.809 154.818 402.074 161.046C398.762 248.477 379.819 312.053 367.804 337.718C324.703 317.904 244.868 266.238 200.751 192.837C222.504 175.07 246.134 154.892 262.451 140.671L189.191 171.3C182.024 156.16 176.482 140.228 173.113 123.576C162.138 69.3327 159.048 22.9884 157.442 -16.8343L235.93 -14.8395C214.738 -19.5983 185.283 -26.2165 156.858 -32.6003C155.011 -85.8682 154.379 -126.745 137.468 -159Z" fill="black" fill-opacity="0.05"/>
<path d="M137.468 -159L137.837 -160.966L133.779 -161.728L135.696 -158.071L137.468 -159ZM338.378 -59.3221L339.542 -57.6954L341.472 -59.0766L339.783 -60.745L338.378 -59.3221ZM300.505 -28.0223L300.607 -26.025L300.608 -26.025L300.505 -28.0223ZM354.19 -42.1727L355.724 -43.4551L354.875 -44.4711L353.608 -44.0864L354.19 -42.1727ZM398.743 60.1281L400.733 59.9235L400.733 59.9235L398.743 60.1281ZM402.54 141.592L402.543 143.592L404.52 143.588L404.54 141.612L402.54 141.592ZM350.518 142.909L350.422 140.911L349.838 144.79L350.518 142.909ZM402.074 161.046L404.072 161.122L404.129 159.634L402.719 159.153L402.074 161.046ZM367.804 337.718L366.969 339.535L368.774 340.365L369.616 338.566L367.804 337.718ZM200.751 192.837L199.486 191.288L198.145 192.383L199.037 193.867L200.751 192.837ZM262.451 140.671L263.765 142.178L261.679 138.825L262.451 140.671ZM189.191 171.3L187.383 172.155L188.2 173.882L189.962 173.145L189.191 171.3ZM173.113 123.576L171.153 123.973L171.153 123.973L173.113 123.576ZM157.442 -16.8343L157.493 -18.8337L155.358 -18.8879L155.444 -16.7537L157.442 -16.8343ZM235.93 -14.8395L235.879 -12.8401L236.368 -16.7909L235.93 -14.8395ZM156.858 -32.6003L154.859 -32.531L154.913 -30.9874L156.42 -30.6489L156.858 -32.6003ZM137.468 -159L137.099 -157.034C189.686 -147.158 277.927 -116.222 336.972 -57.8992L338.378 -59.3221L339.783 -60.745C279.961 -119.835 190.857 -151.008 137.837 -160.966L137.468 -159ZM338.378 -59.3221L337.214 -60.9488C325.385 -52.4871 314.662 -44.5718 307.496 -38.7919C303.935 -35.9202 301.162 -33.5049 299.577 -31.7842C299.175 -31.3479 298.817 -30.9225 298.534 -30.5193C298.274 -30.1502 297.97 -29.6533 297.828 -29.0902C297.674 -28.476 297.649 -27.3671 298.616 -26.5889C299.341 -26.0053 300.2 -26.0041 300.607 -26.025L300.505 -28.0223L300.403 -30.0197C300.203 -30.0095 300.641 -30.0934 301.124 -29.7051C301.848 -29.1221 301.759 -28.3185 301.707 -28.1137C301.669 -27.9599 301.636 -27.9762 301.806 -28.2182C301.952 -28.426 302.183 -28.7096 302.519 -29.0738C303.884 -30.5553 306.448 -32.8085 310.007 -35.6783C317.078 -41.3813 327.721 -49.2404 339.542 -57.6954L338.378 -59.3221ZM300.505 -28.0223L300.608 -26.025C302.117 -26.1026 304.808 -26.612 308.201 -27.3809C311.655 -28.1636 315.999 -29.2538 320.908 -30.5577C330.73 -33.1662 342.864 -36.6432 354.771 -40.259L354.19 -42.1727L353.608 -44.0864C341.737 -40.4813 329.649 -37.0178 319.882 -34.4236C314.997 -33.1262 310.705 -32.0496 307.317 -31.2821C303.87 -30.5008 301.512 -30.0768 300.402 -30.0197L300.505 -28.0223ZM354.19 -42.1727L352.655 -40.8902C376.135 -12.7923 392.684 20.7534 396.754 60.3327L398.743 60.1281L400.733 59.9235C396.569 19.4252 379.628 -14.8503 355.724 -43.4551L354.19 -42.1727ZM398.743 60.1281L396.754 60.3327C399.701 88.9975 400.797 116.18 400.54 141.571L402.54 141.592L404.54 141.612C404.798 116.077 403.696 88.7439 400.733 59.9235L398.743 60.1281ZM402.54 141.592L402.537 139.592C383.634 139.624 363.782 140.272 350.422 140.911L350.518 142.909L350.614 144.907C363.926 144.269 383.716 143.624 402.543 143.592L402.54 141.592ZM350.518 142.909L349.838 144.79C363.693 149.803 383.149 156.706 401.428 162.939L402.074 161.046L402.719 159.153C384.469 152.93 365.037 146.035 351.199 141.028L350.518 142.909ZM402.074 161.046L400.075 160.97C396.771 248.191 377.872 311.494 365.993 336.87L367.804 337.718L369.616 338.566C381.765 312.612 400.753 248.764 404.072 161.122L402.074 161.046ZM367.804 337.718L368.64 335.901C325.743 316.181 246.3 264.737 202.465 191.806L200.751 192.837L199.037 193.867C243.437 267.738 323.662 319.627 366.969 339.535L367.804 337.718ZM200.751 192.837L202.016 194.386C223.791 176.602 247.437 156.409 263.765 142.178L262.451 140.671L261.137 139.163C244.831 153.374 221.218 173.538 199.486 191.288L200.751 192.837ZM262.451 140.671L261.679 138.825L188.419 169.454L189.191 171.3L189.962 173.145L263.222 142.516L262.451 140.671ZM189.191 171.3L190.999 170.444C183.893 155.434 178.407 139.656 175.073 123.179L173.113 123.576L171.153 123.973C174.557 140.8 180.154 156.886 187.383 172.155L189.191 171.3ZM173.113 123.576L175.073 123.179C164.129 69.0858 161.044 22.8613 159.441 -16.9149L157.442 -16.8343L155.444 -16.7537C157.051 23.1156 160.148 69.5796 171.153 123.973L173.113 123.576ZM157.442 -16.8343L157.391 -14.8349L235.879 -12.8401L235.93 -14.8395L235.98 -16.8388L157.493 -18.8337L157.442 -16.8343ZM235.93 -14.8395L236.368 -16.7909C215.176 -21.5498 185.722 -28.1677 157.296 -34.5517L156.858 -32.6003L156.42 -30.6489C184.844 -24.2652 214.3 -17.6469 235.491 -12.8881L235.93 -14.8395ZM156.858 -32.6003L158.857 -32.6697C157.935 -59.2621 157.313 -82.9029 154.798 -103.918C152.28 -124.952 147.852 -143.502 139.239 -159.929L137.468 -159L135.696 -158.071C143.995 -142.243 148.338 -124.227 150.826 -103.442C153.316 -82.6379 153.934 -59.2064 154.859 -32.531L156.858 -32.6003Z" fill="#1D1D1D"/>
</g>
<g opacity="0.22">
<path d="M1580 377C1646.15 387.691 1757.69 423.6 1833.65 494.911C1804.7 516.752 1781.37 535.599 1787.42 535.135C1793.95 534.633 1824.49 525.548 1853.91 515.792C1884.34 550.389 1906.3 592.137 1912.7 641.927C1917.29 677.669 1919.53 711.618 1920.01 743.373C1896.49 744.012 1871.8 745.446 1855.2 746.665C1872.62 752.473 1897.08 760.459 1920.05 767.645C1918.69 876.757 1897.09 956.622 1882.92 989.001C1828.55 965.663 1727.38 903.777 1670.05 813.66C1696.61 790.82 1725.43 764.913 1745.32 746.665L1654.95 787.176C1645.54 768.527 1638.12 748.836 1633.4 728.182C1617.99 660.9 1612.67 603.217 1609.41 553.618H1707.33C1680.76 548.356 1643.82 541.041 1608.18 533.982C1604.19 467.626 1602.11 416.68 1580 377Z" fill="black" fill-opacity="0.05"/>
<path d="M1580 377L1580.32 375.026L1576.24 374.367L1578.25 377.973L1580 377ZM1833.65 494.911L1834.85 496.508L1836.75 495.078L1835.02 493.453L1833.65 494.911ZM1787.42 535.135L1787.58 537.129L1787.58 537.129L1787.42 535.135ZM1853.91 515.792L1855.41 514.471L1854.53 513.477L1853.28 513.894L1853.91 515.792ZM1912.7 641.927L1914.68 641.672L1914.68 641.672L1912.7 641.927ZM1920.01 743.373L1920.07 745.372L1922.04 745.319L1922.01 743.342L1920.01 743.373ZM1855.2 746.665L1855.05 744.67L1854.56 748.562L1855.2 746.665ZM1920.05 767.645L1922.05 767.669L1922.07 766.18L1920.65 765.736L1920.05 767.645ZM1882.92 989.001L1882.13 990.839L1883.96 991.622L1884.75 989.803L1882.92 989.001ZM1670.05 813.66L1668.74 812.144L1667.43 813.273L1668.36 814.734L1670.05 813.66ZM1745.32 746.665L1746.67 748.139L1744.5 744.84L1745.32 746.665ZM1654.95 787.176L1653.17 788.077L1654.03 789.782L1655.77 789.001L1654.95 787.176ZM1633.4 728.182L1631.45 728.628L1631.45 728.628L1633.4 728.182ZM1609.41 553.618V551.618H1607.27L1607.41 553.749L1609.41 553.618ZM1707.33 553.618V555.618L1707.72 551.656L1707.33 553.618ZM1608.18 533.982L1606.18 534.103L1606.28 535.644L1607.79 535.944L1608.18 533.982ZM1580 377L1579.68 378.974C1645.61 389.63 1756.72 425.432 1832.28 496.369L1833.65 494.911L1835.02 493.453C1758.66 421.769 1646.69 385.752 1580.32 375.026L1580 377ZM1833.65 494.911L1832.45 493.315C1817.97 504.239 1804.86 514.44 1796.12 521.863C1791.77 525.556 1788.41 528.635 1786.52 530.8C1786.04 531.347 1785.62 531.871 1785.3 532.358C1785 532.811 1784.67 533.379 1784.53 533.997C1784.38 534.666 1784.4 535.812 1785.41 536.589C1786.18 537.177 1787.09 537.166 1787.58 537.129L1787.42 535.135L1787.27 533.141C1787 533.162 1787.38 533.057 1787.84 533.41C1788.55 533.951 1788.47 534.719 1788.44 534.874C1788.41 534.978 1788.41 534.899 1788.63 534.575C1788.82 534.287 1789.11 533.908 1789.53 533.435C1791.21 531.514 1794.36 528.603 1798.71 524.912C1807.35 517.568 1820.38 507.425 1834.85 496.508L1833.65 494.911ZM1787.42 535.135L1787.58 537.129C1789.41 536.988 1792.7 536.279 1796.92 535.211C1801.19 534.128 1806.57 532.633 1812.64 530.853C1824.8 527.292 1839.81 522.574 1854.54 517.69L1853.91 515.792L1853.28 513.894C1838.59 518.766 1823.62 523.469 1811.52 527.015C1805.47 528.788 1800.14 530.268 1795.93 531.334C1791.67 532.416 1788.7 533.031 1787.27 533.141L1787.42 535.135ZM1853.91 515.792L1852.41 517.113C1882.62 551.462 1904.37 592.851 1910.71 642.182L1912.7 641.927L1914.68 641.672C1908.22 591.424 1886.06 549.316 1855.41 514.471L1853.91 515.792ZM1912.7 641.927L1910.71 642.182C1915.3 677.846 1917.53 711.721 1918.01 743.404L1920.01 743.373L1922.01 743.342C1921.53 711.516 1919.29 677.491 1914.68 641.672L1912.7 641.927ZM1920.01 743.373L1919.96 741.374C1896.4 742.013 1871.68 743.45 1855.05 744.67L1855.2 746.665L1855.34 748.66C1871.93 747.443 1896.59 746.01 1920.07 745.372L1920.01 743.373ZM1855.2 746.665L1854.56 748.562C1871.99 754.373 1896.47 762.363 1919.45 769.553L1920.05 767.645L1920.65 765.736C1897.69 758.554 1873.24 750.572 1855.83 744.768L1855.2 746.665ZM1920.05 767.645L1918.05 767.62C1916.69 876.521 1895.13 956.112 1881.09 988.199L1882.92 989.001L1884.75 989.803C1899.05 957.131 1920.69 876.993 1922.05 767.669L1920.05 767.645ZM1882.92 989.001L1883.71 987.163C1829.55 963.914 1728.77 902.241 1671.74 812.587L1670.05 813.66L1668.36 814.734C1725.99 905.314 1827.56 967.412 1882.13 990.839L1882.92 989.001ZM1670.05 813.66L1671.35 815.177C1697.93 792.318 1726.77 766.396 1746.67 748.139L1745.32 746.665L1743.97 745.191C1724.09 763.429 1695.28 789.321 1668.74 812.144L1670.05 813.66ZM1745.32 746.665L1744.5 744.84L1654.13 785.351L1654.95 787.176L1655.77 789.001L1746.14 748.49L1745.32 746.665ZM1654.95 787.176L1656.74 786.274C1647.39 767.754 1640.03 748.216 1635.35 727.735L1633.4 728.182L1631.45 728.628C1636.21 749.457 1643.69 769.3 1653.17 788.077L1654.95 787.176ZM1633.4 728.182L1635.35 727.735C1619.98 660.603 1614.67 603.04 1611.4 553.487L1609.41 553.618L1607.41 553.749C1610.68 603.395 1616.01 661.197 1631.45 728.628L1633.4 728.182ZM1609.41 553.618V555.618H1707.33V553.618V551.618H1609.41V553.618ZM1707.33 553.618L1707.72 551.656C1681.15 546.395 1644.21 539.079 1608.57 532.021L1608.18 533.982L1607.79 535.944C1643.43 543.003 1680.37 550.318 1706.94 555.58L1707.33 553.618ZM1608.18 533.982L1610.18 533.862C1608.18 500.725 1606.66 471.295 1602.86 445.199C1599.06 419.084 1592.97 396.162 1581.75 376.027L1580 377L1578.25 377.973C1589.14 397.518 1595.14 419.909 1598.9 445.775C1602.67 471.662 1604.19 500.883 1606.18 534.103L1608.18 533.982Z" fill="#1D1D1D"/>
</g>
</g>
<defs>
<clipPath id="clip0_500_798">
<rect width="1920" height="1920" fill="white"/>
</clipPath>
</defs>
</svg>
