<svg width="1920" height="1920" viewBox="0 0 1920 1920" fill="none" xmlns="http://www.w3.org/2000/svg">
<g clip-path="url(#clip0_503_2)">
<rect width="1920" height="1920" fill="#2D152D"/>
<path d="M1861 1022C1607.97 1101.07 913.727 1257.94 161 1252.88" stroke="#FDFDF7"/>
<path d="M1802.5 820C1562.57 927.136 884.763 1233.36 171 1226.5" stroke="#FDFDF7"/>
<path d="M1773 524C1656.23 728.472 1051.87 1147.77 311 1140.92" stroke="#FDFDF7"/>
<path d="M1859 193.373C1746.5 397.873 1252.5 884.5 539.5 970" stroke="#FDFDF7"/>
<path d="M1902.19 -506.521C1894.75 -273.238 1651.92 370.974 1012.77 688.776" stroke="#FDFDF7"/>
<path d="M1857 1141C1603.67 1187.89 908.613 1280.93 155 1277.93" stroke="#FDFDF7"/>
<path d="M1857 1222C1603.67 1251.78 908.613 1310.86 155 1308.95" stroke="#FDFDF7"/>
<path d="M1851 1278C1597.97 1299.56 903.727 1342.35 151 1340.97" stroke="#FDFDF7"/>
</g>
<defs>
<clipPath id="clip0_503_2">
<rect width="1920" height="1920" fill="white"/>
</clipPath>
</defs>
</svg>
