<svg width="468" height="1899" viewBox="0 0 468 1899" fill="none" xmlns="http://www.w3.org/2000/svg">
<rect width="468" height="1899" fill="#2D152D"/>
<path d="M129.195 300.308C129.195 300.888 129.195 301.468 153.549 327.28C177.902 353.091 226.608 404.117 276.791 456.689" stroke="#FDFDF7" stroke-width="2" stroke-linecap="round"/>
<path d="M387.488 314.365C387.488 314.945 387.488 315.525 387.198 329.45C386.908 343.375 386.328 370.627 385.73 398.705" stroke="#FDFDF7" stroke-width="2" stroke-linecap="round"/>
<path d="M252.191 678.083C251.031 679.242 235.358 699.554 211.936 730.584C202.43 744.219 200.076 748.349 197.739 751.854C196.562 753.62 195.402 755.359 194.207 757.152" stroke="#FDFDF7" stroke-width="2" stroke-linecap="round"/>
<path d="M120.409 620.099C138.542 601.368 152.529 592.056 194.04 576.804C217.332 568.246 229.279 577.331 264.06 591.634C272.064 594.902 276.123 596.062 282.272 599.268C288.422 602.475 296.54 607.694 304.904 613.07" stroke="#FDFDF7" stroke-width="2" stroke-linecap="round"/>
<path d="M334.774 504.131C334.774 505.291 344.632 529.661 360.437 566.841C369.978 589.287 387.979 605.339 396.255 618.017C403.407 628.972 403.898 653.378 393.391 686.745C389.836 698.033 382.251 703.824 372.341 708.217C365.91 709.71 356.633 709.71 350.984 708.841C345.335 707.971 343.595 706.231 341.803 699.168" stroke="#FDFDF7" stroke-width="2" stroke-linecap="round"/>
<path d="M69.4541 897.719C69.4541 898.299 69.4541 898.879 85.9795 934.548C102.505 970.217 135.556 1040.96 158.091 1083.2C180.625 1125.44 191.642 1137.03 204.276 1148.81C248.642 1185.86 257.445 1190.56 261.241 1193.18C263.296 1194.65 265.616 1196.39 269.762 1201.7" stroke="#FDFDF7" stroke-width="2" stroke-linecap="round"/>
<path d="M273.277 1198.18C269.798 1151.79 266.319 1105.41 264.816 1071.65C263.314 1037.9 263.894 1018.19 264.193 1009.48C264.491 1000.77 264.491 1003.67 264.491 1006.66" stroke="#FDFDF7" stroke-width="2" stroke-linecap="round"/>
<path d="M271.52 1199.94C283.116 1183.12 294.713 1166.31 305.906 1149.82C317.098 1133.33 327.536 1117.67 336.391 1106.13C345.247 1094.58 352.205 1087.63 359.374 1078.7" stroke="#FDFDF7" stroke-width="2" stroke-linecap="round"/>
<path d="M166.094 843.249C166.094 844.409 190.447 849.065 230.535 854.925C264.086 859.829 284.311 848.556 304.544 838.602C308.401 836.238 310.14 834.499 311.906 833.023C313.672 831.547 315.411 830.387 317.204 829.192" stroke="#FDFDF7" stroke-width="2" stroke-linecap="round"/>
<path d="M85.2676 1445.93C86.4273 1447.67 87.5869 1449.41 118.626 1497.56C149.665 1545.72 210.548 1640.23 242.492 1690.37C274.436 1740.51 275.596 1743.41 276.193 1746.64C276.79 1749.87 276.79 1753.35 276.79 1756.94" stroke="#FDFDF7" stroke-width="2" stroke-linecap="round"/>
<path d="M355.86 1298.34C354.7 1299.5 353.54 1300.66 335.258 1316.33C316.975 1332 281.605 1362.15 245.163 1393.22" stroke="#FDFDF7" stroke-width="2" stroke-linecap="round"/>
<path d="M129.195 1308.88C128.616 1307.72 128.036 1306.56 123.388 1295.52C118.741 1284.49 110.043 1263.62 101.082 1242.11" stroke="#FDFDF7" stroke-width="2" stroke-linecap="round"/>
<path d="M74.7256 375.863C75.8853 377.023 103.735 392.116 146.476 413.5C161.636 421.085 164.864 419.228 167.807 417.761C170.751 416.294 173.65 414.554 176.303 412.789C178.956 411.023 181.276 409.283 183.665 407.491" stroke="#FDFDF7" stroke-width="2" stroke-linecap="round"/>
<path d="M102.839 131.627C102.839 132.207 102.839 132.787 126.902 140.624C150.966 148.46 199.092 163.536 224.755 171.592C250.417 179.649 252.156 180.229 255.706 179.069" stroke="#FDFDF7" stroke-width="2" stroke-linecap="round"/>
<path d="M406.815 96.4858C406.815 97.0657 406.815 97.6455 392.899 126.646C378.983 155.647 351.151 213.051 320.718 275.709" stroke="#FDFDF7" stroke-width="2" stroke-linecap="round"/>
<path d="M280.305 1584.74C296.54 1590.54 312.776 1596.34 328.387 1601.35C343.999 1606.37 358.495 1610.43 373.43 1616.37" stroke="#FDFDF7" stroke-width="2" stroke-linecap="round"/>
</svg>
