<svg width="468" height="840" viewBox="0 0 468 840" fill="none" xmlns="http://www.w3.org/2000/svg">
<g clip-path="url(#clip0_500_955)">
<rect width="468" height="840" fill="#2D152D"/>
<path d="M-15 31.5C11 65.6667 103.8 128.4 267 106C471 78 442 137 520.5 204C599 271 325 363.5 312.5 465.5C300 567.5 443.5 608 531 752" stroke="#FDFDF7"/>
<path d="M-15 48C11 82.1667 103.8 144.9 267 122.5C471 94.5 442 153.5 520.5 220.5C599 287.5 325 380 312.5 482C300 584 443.5 624.5 531 768.5" stroke="#FDFDF7"/>
<path d="M-15 64.5C11 98.6667 103.8 161.4 267 139C471 111 442 170 520.5 237C599 304 325 396.5 312.5 498.5C300 600.5 443.5 641 531 785" stroke="#FDFDF7"/>
<path d="M-15 81C11 115.167 103.8 177.9 267 155.5C471 127.5 442 186.5 520.5 253.5C599 320.5 325 413 312.5 515C300 617 443.5 657.5 531 801.5" stroke="#FDFDF7"/>
<path d="M-15 97.5C11 131.667 103.8 194.4 267 172C471 144 442 203 520.5 270C599 337 325 429.5 312.5 531.5C300 633.5 443.5 674 531 818" stroke="#FDFDF7"/>
<path d="M-15 114C11 148.167 103.8 210.9 267 188.5C471 160.5 442 219.5 520.5 286.5C599 353.5 325 446 312.5 548C300 650 443.5 690.5 531 834.5" stroke="#FDFDF7"/>
<path d="M-15 130.5C11 164.667 103.8 227.4 267 205C471 177 442 236 520.5 303C599 370 325 462.5 312.5 564.5C300 666.5 443.5 707 531 851" stroke="#FDFDF7"/>
<path d="M-15 147C11 181.167 103.8 243.9 267 221.5C471 193.5 442 252.5 520.5 319.5C599 386.5 325 479 312.5 581C300 683 443.5 723.5 531 867.5" stroke="#FDFDF7"/>
<path d="M-15 163.5C11 197.667 103.8 260.4 267 238C471 210 442 269 520.5 336C599 403 325 495.5 312.5 597.5C300 699.5 443.5 740 531 884" stroke="#FDFDF7"/>
<path d="M-15 180C11 214.167 103.8 276.9 267 254.5C471 226.5 442 285.5 520.5 352.5C599 419.5 325 512 312.5 614C300 716 443.5 756.5 531 900.5" stroke="#FDFDF7"/>
<path d="M-15 196.5C11 230.667 103.8 293.4 267 271C471 243 442 302 520.5 369C599 436 325 528.5 312.5 630.5C300 732.5 443.5 773 531 917" stroke="#FDFDF7"/>
<path d="M-15 213C11 247.167 103.8 309.9 267 287.5C471 259.5 442 318.5 520.5 385.5C599 452.5 325 545 312.5 647C300 749 443.5 789.5 531 933.5" stroke="#FDFDF7"/>
<path d="M-15 229.5C11 263.667 103.8 326.4 267 304C471 276 442 335 520.5 402C599 469 325 561.5 312.5 663.5C300 765.5 443.5 806 531 950" stroke="#FDFDF7"/>
<path d="M-15 246C11 280.167 103.8 342.9 267 320.5C471 292.5 442 351.5 520.5 418.5C599 485.5 325 578 312.5 680C300 782 443.5 822.5 531 966.5" stroke="#FDFDF7"/>
<path d="M-15 262.5C11 296.667 103.8 359.4 267 337C471 309 442 368 520.5 435C599 502 325 594.5 312.5 696.5C300 798.5 443.5 839 531 983" stroke="#FDFDF7"/>
<path d="M-15 279C11 313.167 103.8 375.9 267 353.5C471 325.5 442 384.5 520.5 451.5C599 518.5 325 611 312.5 713C300 815 443.5 855.5 531 999.5" stroke="#FDFDF7"/>
<path d="M-15 295.5C11 329.667 103.8 392.4 267 370C471 342 442 401 520.5 468C599 535 325 627.5 312.5 729.5C300 831.5 443.5 872 531 1016" stroke="#FDFDF7"/>
<path d="M-15 312C11 346.167 103.8 408.9 267 386.5C471 358.5 442 417.5 520.5 484.5C599 551.5 325 644 312.5 746C300 848 443.5 888.5 531 1032.5" stroke="#FDFDF7"/>
<path d="M-15 328.5C11 362.667 103.8 425.4 267 403C471 375 442 434 520.5 501C599 568 325 660.5 312.5 762.5C300 864.5 443.5 905 531 1049" stroke="#FDFDF7"/>
<path d="M-15 345C11 379.167 103.8 441.9 267 419.5C471 391.5 442 450.5 520.5 517.5C599 584.5 325 677 312.5 779C300 881 443.5 921.5 531 1065.5" stroke="#FDFDF7"/>
<path d="M-15 361.5C11 395.667 103.8 458.4 267 436C471 408 442 467 520.5 534C599 601 325 693.5 312.5 795.5C300 897.5 443.5 938 531 1082" stroke="#FDFDF7"/>
<path d="M-15 378C11 412.167 103.8 474.9 267 452.5C471 424.5 442 483.5 520.5 550.5C599 617.5 325 710 312.5 812C300 914 443.5 954.5 531 1098.5" stroke="#FDFDF7"/>
<path d="M-15 394.5C11 428.667 103.8 491.4 267 469C471 441 442 500 520.5 567C599 634 325 726.5 312.5 828.5C300 930.5 443.5 971 531 1115" stroke="#FDFDF7"/>
<path d="M-15 411C11 445.167 103.8 507.9 267 485.5C471 457.5 442 516.5 520.5 583.5C599 650.5 325 743 312.5 845C300 947 443.5 987.5 531 1131.5" stroke="#FDFDF7"/>
<path d="M-15 427.5C11 461.667 103.8 524.4 267 502C471 474 442 533 520.5 600C599 667 325 759.5 312.5 861.5C300 963.5 443.5 1004 531 1148" stroke="#FDFDF7"/>
<path d="M-15 444C11 478.167 103.8 540.9 267 518.5C471 490.5 442 549.5 520.5 616.5C599 683.5 325 776 312.5 878C300 980 443.5 1020.5 531 1164.5" stroke="#FDFDF7"/>
<path d="M-15 460.5C11 494.667 103.8 557.4 267 535C471 507 442 566 520.5 633C599 700 325 792.5 312.5 894.5C300 996.5 443.5 1037 531 1181" stroke="#FDFDF7"/>
<path d="M-15 477C11 511.167 103.8 573.9 267 551.5C471 523.5 442 582.5 520.5 649.5C599 716.5 325 809 312.5 911C300 1013 443.5 1053.5 531 1197.5" stroke="#FDFDF7"/>
<path d="M-15 493.5C11 527.667 103.8 590.4 267 568C471 540 442 599 520.5 666C599 733 325 825.5 312.5 927.5C300 1029.5 443.5 1070 531 1214" stroke="#FDFDF7"/>
<path d="M-15 510C11 544.167 103.8 606.9 267 584.5C471 556.5 442 615.5 520.5 682.5C599 749.5 325 842 312.5 944C300 1046 443.5 1086.5 531 1230.5" stroke="#FDFDF7"/>
<path d="M-15 526.5C11 560.667 103.8 623.4 267 601C471 573 442 632 520.5 699C599 766 325 858.5 312.5 960.5C300 1062.5 443.5 1103 531 1247" stroke="#FDFDF7"/>
<path d="M-15 543C11 577.167 103.8 639.9 267 617.5C471 589.5 442 648.5 520.5 715.5C599 782.5 325 875 312.5 977C300 1079 443.5 1119.5 531 1263.5" stroke="#FDFDF7"/>
<path d="M-15 559.5C11 593.667 103.8 656.4 267 634C471 606 442 665 520.5 732C599 799 325 891.5 312.5 993.5C300 1095.5 443.5 1136 531 1280" stroke="#FDFDF7"/>
<path d="M-15 576C11 610.167 103.8 672.9 267 650.5C471 622.5 442 681.5 520.5 748.5C599 815.5 325 908 312.5 1010C300 1112 443.5 1152.5 531 1296.5" stroke="#FDFDF7"/>
<path d="M-15 592.5C11 626.667 103.8 689.4 267 667C471 639 442 698 520.5 765C599 832 325 924.5 312.5 1026.5C300 1128.5 443.5 1169 531 1313" stroke="#FDFDF7"/>
<path d="M-15 609C11 643.167 103.8 705.9 267 683.5C471 655.5 442 714.5 520.5 781.5C599 848.5 325 941 312.5 1043C300 1145 443.5 1185.5 531 1329.5" stroke="#FDFDF7"/>
<path d="M-15 625.5C11 659.667 103.8 722.4 267 700C471 672 442 731 520.5 798C599 865 325 957.5 312.5 1059.5C300 1161.5 443.5 1202 531 1346" stroke="#FDFDF7"/>
<path d="M-15 642C11 676.167 103.8 738.9 267 716.5C471 688.5 442 747.5 520.5 814.5C599 881.5 325 974 312.5 1076C300 1178 443.5 1218.5 531 1362.5" stroke="#FDFDF7"/>
<path d="M-15 658.5C11 692.667 103.8 755.4 267 733C471 705 442 764 520.5 831C599 898 325 990.5 312.5 1092.5C300 1194.5 443.5 1235 531 1379" stroke="#FDFDF7"/>
<path d="M-15 675C11 709.167 103.8 771.9 267 749.5C471 721.5 442 780.5 520.5 847.5C599 914.5 325 1007 312.5 1109C300 1211 443.5 1251.5 531 1395.5" stroke="#FDFDF7"/>
<path d="M-15 691.5C11 725.667 103.8 788.4 267 766C471 738 442 797 520.5 864C599 931 325 1023.5 312.5 1125.5C300 1227.5 443.5 1268 531 1412" stroke="#FDFDF7"/>
<path d="M-15 708C11 742.167 103.8 804.9 267 782.5C471 754.5 442 813.5 520.5 880.5C599 947.5 325 1040 312.5 1142C300 1244 443.5 1284.5 531 1428.5" stroke="#FDFDF7"/>
<path d="M-15 724.5C11 758.667 103.8 821.4 267 799C471 771 442 830 520.5 897C599 964 325 1056.5 312.5 1158.5C300 1260.5 443.5 1301 531 1445" stroke="#FDFDF7"/>
<path d="M-15 741C11 775.167 103.8 837.9 267 815.5C471 787.5 442 846.5 520.5 913.5C599 980.5 325 1073 312.5 1175C300 1277 443.5 1317.5 531 1461.5" stroke="#FDFDF7"/>
<path d="M-15 757.5C11 791.667 103.8 854.4 267 832C471 804 442 863 520.5 930C599 997 325 1089.5 312.5 1191.5C300 1293.5 443.5 1334 531 1478" stroke="#FDFDF7"/>
<path d="M-15 774C11 808.167 103.8 870.9 267 848.5C471 820.5 442 879.5 520.5 946.5C599 1013.5 325 1106 312.5 1208C300 1310 443.5 1350.5 531 1494.5" stroke="#FDFDF7"/>
<path d="M-15 790.5C11 824.667 103.8 887.4 267 865C471 837 442 896 520.5 963C599 1030 325 1122.5 312.5 1224.5C300 1326.5 443.5 1367 531 1511" stroke="#FDFDF7"/>
<path d="M-15 807C11 841.167 103.8 903.9 267 881.5C471 853.5 442 912.5 520.5 979.5C599 1046.5 325 1139 312.5 1241C300 1343 443.5 1383.5 531 1527.5" stroke="#FDFDF7"/>
<path d="M-15 823.5C11 857.667 103.8 920.4 267 898C471 870 442 929 520.5 996C599 1063 325 1155.5 312.5 1257.5C300 1359.5 443.5 1400 531 1544" stroke="#FDFDF7"/>
<path d="M-15 840C11 874.167 103.8 936.9 267 914.5C471 886.5 442 945.5 520.5 1012.5C599 1079.5 325 1172 312.5 1274C300 1376 443.5 1416.5 531 1560.5" stroke="#FDFDF7"/>
</g>
<defs>
<clipPath id="clip0_500_955">
<rect width="468" height="840" fill="white"/>
</clipPath>
</defs>
</svg>
