<svg width="468" height="1899" viewBox="0 0 468 1899" fill="none" xmlns="http://www.w3.org/2000/svg">
<g clip-path="url(#clip0_500_955)">
<rect width="468" height="1899" fill="#2D152D"/>
<path d="M38 113.5C65.8333 126 142.2 150.8 225 150" stroke="#FDFDF7"/>
<path d="M38 1334C65.8333 1346.5 142.2 1371.3 225 1370.5" stroke="#FDFDF7"/>
<path d="M38.5 132C66.3333 139.53 142.7 154.471 225.5 153.989" stroke="#FDFDF7"/>
<path d="M38.5 1352.5C66.3333 1360.03 142.7 1374.97 225.5 1374.49" stroke="#FDFDF7"/>
<path d="M38.5 145C66.3333 149.792 142.7 159.299 225.5 158.993" stroke="#FDFDF7"/>
<path d="M38.5 1365.5C66.3333 1370.29 142.7 1379.8 225.5 1379.49" stroke="#FDFDF7"/>
<path d="M39 154C66.8333 157.423 143.2 164.214 226 163.995" stroke="#FDFDF7"/>
<path d="M39 1374.5C66.8333 1377.92 143.2 1384.71 226 1384.49" stroke="#FDFDF7"/>
<path d="M281 307.5C291.5 330.333 333.9 379.1 419.5 391.5" stroke="#FDFDF7"/>
<path d="M281 1528C291.5 1550.83 333.9 1599.6 419.5 1612" stroke="#FDFDF7"/>
<path d="M272 330.344C284.965 351.874 332.507 395.643 418.954 398.483" stroke="#FDFDF7"/>
<path d="M272 1550.84C284.965 1572.37 332.507 1616.14 418.954 1618.98" stroke="#FDFDF7"/>
<path d="M267 350.499C281.824 370.793 333.063 410.17 419.421 405.328" stroke="#FDFDF7"/>
<path d="M267 1571C281.824 1591.29 333.063 1630.67 419.421 1625.83" stroke="#FDFDF7"/>
<path d="M263.902 388.764C277.666 403.821 326.639 432.014 412.42 424.328" stroke="#FDFDF7"/>
<path d="M263.902 1609.26C277.666 1624.32 326.639 1652.51 412.42 1644.83" stroke="#FDFDF7"/>
<path d="M272.038 470.179C283.617 474.45 327.923 479.607 412.518 466.063" stroke="#FDFDF7"/>
<path d="M272.038 1690.68C283.617 1694.95 327.923 1700.11 412.518 1686.56" stroke="#FDFDF7"/>
<path d="M55.5 629C76.1667 633.167 127 650.9 165 688.5" stroke="#FDFDF7"/>
<path d="M53.501 717.973C73.3126 711.452 124.254 699.955 169.525 706.127" stroke="#FDFDF7"/>
<path d="M63.9736 768.299C82.8739 759.668 131.316 741.76 173.88 739.17" stroke="#FDFDF7"/>
<path d="M77.0703 780.829C97.598 784.041 147.89 795.791 184.836 817.085" stroke="#FDFDF7"/>
<path d="M66.5879 807C79.9134 813.041 112.192 837.481 134.704 886.919" stroke="#FDFDF7"/>
<path d="M41.9551 860C49.2309 867.903 66.4271 900.822 77.0058 969.276" stroke="#FDFDF7"/>
<path d="M194 1035C205.833 1027.17 239.2 1011.4 278 1011" stroke="#FDFDF7"/>
<path d="M212 1062C227.778 1051.56 272.267 1030.53 324 1030" stroke="#FDFDF7"/>
<path d="M250 1101C273.667 1088.27 340.4 1062.65 418 1062" stroke="#FDFDF7"/>
<path d="M294 1157C323.02 1141.01 404.848 1108.82 500 1108" stroke="#FDFDF7"/>
</g>
<defs>
<clipPath id="clip0_500_955">
<rect width="468" height="1899" fill="white"/>
</clipPath>
</defs>
</svg>
