<svg width="468" height="840" viewBox="0 0 468 840" fill="none" xmlns="http://www.w3.org/2000/svg">
<g clip-path="url(#clip0_500_955)">
<rect width="468" height="840" fill="#2D152D"/>
<path opacity="0.3" d="M-15 31.5C11 65.6667 103.8 128.4 267 106C471 78 442 137 520.5 204C599 271 325 363.5 312.5 465.5C300 567.5 443.5 608 531 752" stroke="#FDFDF7" stroke-width="2"/>
<path opacity="0.3" d="M-15 131C11 165.167 103.8 227.9 267 205.5C471 177.5 442 236.5 520.5 303.5C599 370.5 325 463 312.5 565C300 667 443.5 707.5 531 851.5" stroke="#FDFDF7" stroke-width="2"/>
<path opacity="0.3" d="M-15 230.5C11 264.667 103.8 327.4 267 305C471 277 442 336 520.5 403C599 470 325 562.5 312.5 664.5C300 766.5 443.5 807 531 951" stroke="#FDFDF7" stroke-width="2"/>
<path opacity="0.3" d="M-15 330C11 364.167 103.8 426.9 267 404.5C471 376.5 442 435.5 520.5 502.5C599 569.5 325 662 312.5 764C300 866 443.5 906.5 531 1050.5" stroke="#FDFDF7" stroke-width="2"/>
<path opacity="0.3" d="M-15 429.5C11 463.667 103.8 526.4 267 504C471 476 442 535 520.5 602C599 669 325 761.5 312.5 863.5C300 965.5 443.5 1006 531 1150" stroke="#FDFDF7" stroke-width="2"/>
<path opacity="0.3" d="M-15 529C11 563.167 103.8 625.9 267 603.5C471 575.5 442 634.5 520.5 701.5C599 768.5 325 861 312.5 963C300 1065 443.5 1105.5 531 1249.5" stroke="#FDFDF7" stroke-width="2"/>
<path opacity="0.3" d="M-15 628.5C11 662.667 103.8 725.4 267 703C471 675 442 734 520.5 801C599 868 325 960.5 312.5 1062.5C300 1164.5 443.5 1205 531 1349" stroke="#FDFDF7" stroke-width="2"/>
<path opacity="0.3" d="M-15 728C11 762.167 103.8 824.9 267 802.5C471 774.5 442 833.5 520.5 900.5C599 967.5 325 1060 312.5 1162C300 1264 443.5 1304.5 531 1448.5" stroke="#FDFDF7" stroke-width="2"/>
<path opacity="0.3" d="M-15 827.5C11 861.667 103.8 924.4 267 902C471 874 442 933 520.5 1000C599 1067 325 1159.5 312.5 1261.5C300 1363.5 443.5 1404 531 1548" stroke="#FDFDF7" stroke-width="2"/>
</g>
<defs>
<clipPath id="clip0_500_955">
<rect width="468" height="840" fill="white"/>
</clipPath>
</defs>
</svg>
