<svg width="632" height="536" viewBox="0 0 632 536" fill="none" xmlns="http://www.w3.org/2000/svg">
<path d="M127.527 408.473H64.7636C48.1176 408.473 32.1535 401.86 20.383 390.09C8.61257 378.319 2 362.355 2 345.709V188.8C2 172.154 8.61257 156.19 20.383 144.42C32.1535 132.649 48.1176 126.037 64.7636 126.037H566.872C583.518 126.037 599.482 132.649 611.253 144.42C623.023 156.19 629.636 172.154 629.636 188.8V345.709C629.636 362.355 623.023 378.319 611.253 390.09C599.482 401.86 583.518 408.473 566.872 408.473H504.109" stroke="#2D152D" stroke-width="4" stroke-linecap="round" stroke-linejoin="round"/>
<path d="M472.726 282.945H158.908C141.576 282.945 127.526 296.995 127.526 314.327V502.618C127.526 519.95 141.576 534 158.908 534H472.726C490.058 534 504.108 519.95 504.108 502.618V314.327C504.108 296.995 490.058 282.945 472.726 282.945Z" stroke="#2D152D" stroke-width="4" stroke-linecap="round" stroke-linejoin="round"/>
<path d="M128 126V33C128 15.8792 142.028 2 159.333 2H472.667C489.972 2 504 15.8792 504 33V126" stroke="#2D152D" stroke-width="4" stroke-linecap="round" stroke-linejoin="round"/>
<circle cx="239.97" cy="379.515" r="35.8707" fill="#2D152D"/>
<circle cx="392.974" cy="379.515" r="35.8707" fill="#2D152D"/>
</svg>
