<svg width="442" height="380" viewBox="0 0 442 380" fill="none" xmlns="http://www.w3.org/2000/svg">
<path d="M97.5066 282.426H56.2606C45.3215 282.426 34.8304 278.08 27.0953 270.345C19.3602 262.61 15.0146 252.119 15.0146 241.18V138.065C15.0146 127.126 19.3602 116.635 27.0953 108.9C34.8304 101.164 45.3215 96.8188 56.2606 96.8188H386.229C397.168 96.8188 407.659 101.164 415.394 108.9C423.129 116.635 427.475 127.126 427.475 138.065V241.18C427.475 252.119 423.129 262.61 415.394 270.345C407.659 278.08 397.168 282.426 386.229 282.426H344.983" fill="#FC9CD7"/>
<path d="M97.5066 282.426H56.2606C45.3215 282.426 34.8304 278.08 27.0953 270.345C19.3602 262.61 15.0146 252.119 15.0146 241.18V138.065C15.0146 127.126 19.3602 116.635 27.0953 108.9C34.8304 101.164 45.3215 96.8188 56.2606 96.8188H386.229C397.168 96.8188 407.659 101.164 415.394 108.9C423.129 116.635 427.475 127.126 427.475 138.065V241.18C427.475 252.119 423.129 262.61 415.394 270.345C407.659 278.08 397.168 282.426 386.229 282.426H344.983" stroke="black" stroke-width="28.4732" stroke-linecap="round" stroke-linejoin="round"/>
<path d="M97.5059 82.2986V24.6141C97.5059 22.0643 99.6786 19.6189 103.546 17.8159C107.414 16.0129 112.659 15 118.129 15H324.359C329.828 15 335.074 16.0129 338.942 17.8159C342.809 19.6189 344.982 22.0643 344.982 24.6141V82.2986" fill="#FC9CD7"/>
<path d="M97.5059 82.2986V24.6141C97.5059 22.0643 99.6786 19.6189 103.546 17.8159C107.414 16.0129 112.659 15 118.129 15H324.359C329.828 15 335.074 16.0129 338.942 17.8159C342.809 19.6189 344.982 22.0643 344.982 24.6141V82.2986" stroke="black" stroke-width="28.4732" stroke-linecap="round" stroke-linejoin="round"/>
<path d="M324.359 199.934H118.129C106.739 199.934 97.5059 209.167 97.5059 220.557V344.295C97.5059 355.684 106.739 364.918 118.129 364.918H324.359C335.749 364.918 344.982 355.684 344.982 344.295V220.557C344.982 209.167 335.749 199.934 324.359 199.934Z" fill="#F1FA6B" stroke="black" stroke-width="28.4732" stroke-linecap="round" stroke-linejoin="round"/>
<circle cx="171.4" cy="263.396" r="23.5729" fill="black"/>
<circle cx="271.949" cy="263.396" r="23.5729" fill="black"/>
</svg>
